<svg xmlns="http://www.w3.org/2000/svg" width="1080" height="1080" viewBox="0 0 1080 1080" version="1.1"><path d="M 561.453 365.261 C 561.183 365.964, 561.084 377.331, 561.231 390.520 L 561.500 414.500 588.702 415 C 605.406 415.307, 616.302 415.899, 616.935 416.533 C 617.579 417.178, 618.067 427.703, 618.233 444.533 L 618.500 471.500 643.500 471.500 L 668.500 471.500 668.500 418 L 668.500 364.500 615.222 364.241 C 572.699 364.035, 561.845 364.241, 561.453 365.261 M 529 446.642 C 509.739 447.844, 499.700 449.556, 485.360 454.081 C 437.208 469.278, 402.476 510.900, 394.471 563 C 387.712 606.995, 402.202 649.126, 434.745 680.094 C 452.657 697.140, 476.207 709.281, 501.500 714.511 C 514.021 717.100, 534.392 717.565, 547.896 715.571 C 565.749 712.935, 585.278 705.523, 600.354 695.662 C 632.195 674.836, 654.162 641.339, 660.418 604.074 C 662.492 591.717, 662.642 561.778, 660.639 560.115 C 659.651 559.295, 641.357 559.056, 593.889 559.243 L 528.500 559.500 528.500 588 L 528.500 616.500 561.250 616.764 C 599.239 617.070, 597.124 616.238, 589.074 627.701 C 580.319 640.167, 567.773 649.333, 551.480 655.167 C 542.898 658.239, 541.835 658.383, 527.500 658.402 C 513.235 658.422, 512.027 658.265, 502.861 655.200 C 481.103 647.925, 463.969 631.210, 456.166 609.646 C 440.680 566.848, 461.894 522.699, 504.503 509.050 C 518.175 504.670, 527.401 503.790, 556 504.135 C 570.025 504.304, 582.063 504.091, 582.750 503.662 C 584.284 502.705, 584.539 450.403, 583.022 448 C 582.227 446.740, 578.268 446.484, 558.287 446.399 C 545.204 446.344, 532.025 446.453, 529 446.642" stroke="none" fill="#06547e" fill-rule="evenodd"/><path d="M 0 540.001 L 0 1080.002 540.250 1079.751 L 1080.500 1079.500 1080.751 539.750 L 1081.002 -0 540.501 -0 L 0 0 0 540.001 M 0.496 540.500 C 0.496 837.500, 0.610 958.851, 0.750 810.168 C 0.890 661.485, 0.890 418.485, 0.750 270.168 C 0.610 121.851, 0.496 243.500, 0.496 540.500 M 561.453 365.261 C 561.183 365.964, 561.084 377.331, 561.231 390.520 L 561.500 414.500 588.702 415 C 605.406 415.307, 616.302 415.899, 616.935 416.533 C 617.579 417.178, 618.067 427.703, 618.233 444.533 L 618.500 471.500 643.500 471.500 L 668.500 471.500 668.500 418 L 668.500 364.500 615.222 364.241 C 572.699 364.035, 561.845 364.241, 561.453 365.261 M 529 446.642 C 509.739 447.844, 499.700 449.556, 485.360 454.081 C 437.208 469.278, 402.476 510.900, 394.471 563 C 387.712 606.995, 402.202 649.126, 434.745 680.094 C 452.657 697.140, 476.207 709.281, 501.500 714.511 C 514.021 717.100, 534.392 717.565, 547.896 715.571 C 565.749 712.935, 585.278 705.523, 600.354 695.662 C 632.195 674.836, 654.162 641.339, 660.418 604.074 C 662.492 591.717, 662.642 561.778, 660.639 560.115 C 659.651 559.295, 641.357 559.056, 593.889 559.243 L 528.500 559.500 528.500 588 L 528.500 616.500 561.250 616.764 C 599.239 617.070, 597.124 616.238, 589.074 627.701 C 580.319 640.167, 567.773 649.333, 551.480 655.167 C 542.898 658.239, 541.835 658.383, 527.500 658.402 C 513.235 658.422, 512.027 658.265, 502.861 655.200 C 481.103 647.925, 463.969 631.210, 456.166 609.646 C 440.680 566.848, 461.894 522.699, 504.503 509.050 C 518.175 504.670, 527.401 503.790, 556 504.135 C 570.025 504.304, 582.063 504.091, 582.750 503.662 C 584.284 502.705, 584.539 450.403, 583.022 448 C 582.227 446.740, 578.268 446.484, 558.287 446.399 C 545.204 446.344, 532.025 446.453, 529 446.642" stroke="none" fill="#fbfbfb" fill-rule="evenodd"/></svg>