<svg xmlns="http://www.w3.org/2000/svg" width="1080" height="1080" viewBox="0 0 1080 1080" version="1.1"><path d="M 561.450 238.270 C 561.182 238.968, 561.084 250.331, 561.231 263.520 L 561.500 287.500 588.418 287.767 C 606.033 287.941, 615.790 288.411, 616.652 289.126 C 617.669 289.970, 618.029 296.394, 618.234 317.359 L 618.500 344.500 642.375 344.768 C 659.148 344.957, 666.660 344.697, 667.625 343.896 C 668.759 342.955, 669 333.756, 669 291.459 C 669 263.247, 668.727 239.452, 668.393 238.582 C 667.850 237.167, 662.199 237, 614.862 237 C 573.005 237, 561.835 237.266, 561.450 238.270 M 522.499 320.027 C 486.884 322.962, 459.410 334.191, 436.574 355.145 C 417.554 372.596, 402.722 398.745, 396.238 426.253 C 393.884 436.239, 393.582 439.574, 393.544 456 C 393.497 475.914, 394.662 484.115, 399.656 499 C 407.368 521.989, 423.918 545.256, 443.301 560.360 C 479.040 588.209, 525.023 596.885, 567.827 583.856 C 571.497 582.739, 579.450 579.436, 585.500 576.516 C 625.752 557.090, 653.851 519.079, 660.545 475 C 662.377 462.941, 662.510 436.076, 660.750 433.681 C 659.592 432.105, 654.690 431.999, 594 432.240 L 528.500 432.500 528.500 461 L 528.500 489.500 561.250 489.764 C 598.714 490.065, 596.749 489.440, 590.309 499.013 C 581.552 512.033, 566.983 522.860, 551 528.227 C 542.050 531.232, 540.660 531.417, 527 531.411 C 513.256 531.404, 512.007 531.234, 503.054 528.155 C 486.989 522.630, 474.968 513.773, 465.419 500.423 C 455.626 486.733, 451.553 473.253, 451.544 454.500 C 451.537 439.063, 452.996 432.584, 459.424 419.500 C 468.829 400.358, 486.971 386.273, 510.500 379.847 C 517.690 377.883, 521.791 377.603, 551 377.081 L 583.500 376.500 583.766 349.337 C 583.998 325.628, 583.830 321.973, 582.444 320.587 C 581.072 319.215, 577.512 319.019, 556.179 319.143 C 542.605 319.221, 527.450 319.619, 522.499 320.027 M 279.500 619.597 C 264.638 622.897, 248.281 632.876, 238.879 644.379 C 232.772 651.851, 225.671 666.066, 223.333 675.500 C 220.955 685.091, 220.947 707.024, 223.317 715.879 C 227.480 731.432, 233.403 742.170, 243.500 752.474 C 251.954 761.102, 261.783 767.130, 274.220 771.315 C 283.103 774.304, 284.184 774.436, 299.500 774.403 C 314.212 774.371, 316.184 774.146, 324 771.601 C 350.171 763.081, 367.731 742.767, 373.489 714.353 C 374.397 709.867, 374.964 703.088, 374.796 698.702 L 374.500 690.964 337 690.959 C 316.375 690.956, 298.938 690.964, 298.250 690.977 C 297.318 690.994, 297 694.175, 297 703.480 L 297 715.961 318.750 716.230 C 343.760 716.540, 342.236 715.664, 336.921 726.685 C 329.256 742.581, 310.870 750.654, 291.172 746.773 C 280.759 744.722, 274.848 741.752, 268.398 735.331 C 249.568 716.586, 249.282 676.622, 267.846 658.059 C 287.099 638.806, 323.836 644.630, 333.649 668.493 L 335.500 672.993 354.317 672.996 L 373.135 673 372.512 670.750 C 372.170 669.513, 369.873 664.343, 367.407 659.262 C 358.734 641.386, 341.705 626.911, 322.618 621.190 C 312.018 618.013, 290.254 617.209, 279.500 619.597 M 856.914 619.956 C 848.806 622.413, 844.546 629.048, 845.207 638.190 C 845.580 643.348, 846.081 644.499, 849.453 647.952 C 860.266 659.025, 880.466 653.907, 883.470 639.334 C 885.063 631.601, 879.230 622.268, 871.453 620.109 C 866.968 618.863, 860.734 618.798, 856.914 619.956 M 799.500 622.887 C 790.019 625.367, 781.422 633.336, 778.636 642.227 C 777.727 645.127, 776.650 650.875, 776.242 655 L 775.500 662.500 764.750 662.784 L 754 663.068 754 675.534 L 754 688 765 688 L 776 688 776 731.527 L 776 775.053 790.750 774.777 L 805.500 774.500 805.761 731.277 L 806.021 688.055 820.261 687.777 L 834.500 687.500 834.781 675.278 L 835.061 663.055 820.781 662.778 L 806.500 662.500 806.190 657.628 C 805.940 653.690, 806.311 652.298, 808.125 650.367 C 811.945 646.301, 819.759 645.242, 828.250 647.640 C 829.844 648.091, 830 647.104, 830 636.543 L 830 624.950 827.250 623.809 C 823.965 622.445, 803.758 621.774, 799.500 622.887 M 506.308 660.914 C 494.679 664.241, 482.427 673.571, 475.611 684.290 C 463.598 703.183, 463.448 729.157, 475.238 748.797 C 479.512 755.916, 489.339 764.868, 497.208 768.811 C 523.226 781.849, 554.643 773.864, 570.349 750.222 C 572.806 746.525, 575.818 740.575, 577.045 737 C 579.818 728.916, 580.794 712.763, 579.054 703.754 C 577.243 694.377, 571.820 683.950, 564.916 676.569 C 553.086 663.923, 541.237 658.951, 523.212 659.071 C 516.152 659.118, 510.389 659.746, 506.308 660.914 M 454 661.661 C 441.692 663.576, 431.555 668.416, 423.548 676.203 C 420.269 679.391, 417.455 682, 417.293 682 C 417.132 682, 417 677.725, 417 672.500 L 417 663 403.500 663 L 390 663 390 719.027 L 390 775.053 404.750 774.777 L 419.500 774.500 420 742 C 420.561 705.561, 420.611 705.282, 427.806 698.790 C 432.998 694.105, 439.852 692.069, 451.514 691.748 L 460.500 691.500 460.776 676.250 L 461.052 661 458.776 661.136 C 457.524 661.211, 455.375 661.447, 454 661.661 M 582.029 663.723 C 582.061 664.579, 586.239 679.443, 602.554 736.750 L 613.444 775 628.180 775 L 642.915 775 644.883 768.250 C 647.384 759.667, 654.007 736.637, 659.269 718.225 C 661.513 710.373, 663.660 704.298, 664.040 704.725 C 664.419 705.151, 666.628 712.025, 668.949 720 C 674.457 738.933, 679.590 756.478, 682.634 766.777 L 685.080 775.053 699.769 774.777 L 714.457 774.500 721.566 749.500 C 725.477 735.750, 732.574 710.957, 737.338 694.405 C 742.102 677.853, 746 664.016, 746 663.655 C 746 663.295, 739.536 663, 731.637 663 L 717.273 663 713.117 678.750 C 702.320 719.661, 699.183 731.150, 698.672 731.662 C 698.367 731.966, 697.384 729.579, 696.488 726.357 C 693.048 714.003, 689.952 702.930, 685.625 687.500 C 683.156 678.700, 680.639 669.587, 680.030 667.250 L 678.923 663 664.211 663 L 649.500 663.001 644.840 679.250 C 632.319 722.915, 629.552 731.948, 628.908 731.253 C 628.338 730.636, 623.214 711.949, 611.565 668 L 610.372 663.500 596.186 663.223 C 588.384 663.070, 582.013 663.295, 582.029 663.723 M 850 719 L 850 775 864.500 775 L 879 775 879 719 L 879 663 864.500 663 L 850 663 850 719 M 511.936 687.750 C 502.163 692.707, 496.680 703.331, 496.766 717.144 C 496.880 735.283, 506.498 747.547, 521.591 748.799 C 532.484 749.702, 541.806 743.905, 546.889 733.067 C 549.227 728.082, 549.493 726.350, 549.433 716.500 C 549.360 704.611, 548.564 701.799, 543.175 694.385 C 536.488 685.187, 522.745 682.268, 511.936 687.750" stroke="none" fill="#0e354b" fill-rule="evenodd"/><path d="M 0 540.001 L 0 1080.002 540.250 1079.751 L 1080.500 1079.500 1080.751 539.750 L 1081.002 -0 540.501 -0 L 0 0 0 540.001 M 0.496 540.500 C 0.496 837.500, 0.610 958.851, 0.750 810.168 C 0.890 661.485, 0.890 418.485, 0.750 270.168 C 0.610 121.851, 0.496 243.500, 0.496 540.500 M 561.450 238.270 C 561.182 238.968, 561.084 250.331, 561.231 263.520 L 561.500 287.500 588.418 287.767 C 606.033 287.941, 615.790 288.411, 616.652 289.126 C 617.669 289.970, 618.029 296.394, 618.234 317.359 L 618.500 344.500 642.375 344.768 C 659.148 344.957, 666.660 344.697, 667.625 343.896 C 668.759 342.955, 669 333.756, 669 291.459 C 669 263.247, 668.727 239.452, 668.393 238.582 C 667.850 237.167, 662.199 237, 614.862 237 C 573.005 237, 561.835 237.266, 561.450 238.270 M 522.499 320.027 C 486.884 322.962, 459.410 334.191, 436.574 355.145 C 417.554 372.596, 402.722 398.745, 396.238 426.253 C 393.884 436.239, 393.582 439.574, 393.544 456 C 393.497 475.914, 394.662 484.115, 399.656 499 C 407.368 521.989, 423.918 545.256, 443.301 560.360 C 479.040 588.209, 525.023 596.885, 567.827 583.856 C 571.497 582.739, 579.450 579.436, 585.500 576.516 C 625.752 557.090, 653.851 519.079, 660.545 475 C 662.377 462.941, 662.510 436.076, 660.750 433.681 C 659.592 432.105, 654.690 431.999, 594 432.240 L 528.500 432.500 528.500 461 L 528.500 489.500 561.250 489.764 C 598.714 490.065, 596.749 489.440, 590.309 499.013 C 581.552 512.033, 566.983 522.860, 551 528.227 C 542.050 531.232, 540.660 531.417, 527 531.411 C 513.256 531.404, 512.007 531.234, 503.054 528.155 C 486.989 522.630, 474.968 513.773, 465.419 500.423 C 455.626 486.733, 451.553 473.253, 451.544 454.500 C 451.537 439.063, 452.996 432.584, 459.424 419.500 C 468.829 400.358, 486.971 386.273, 510.500 379.847 C 517.690 377.883, 521.791 377.603, 551 377.081 L 583.500 376.500 583.766 349.337 C 583.998 325.628, 583.830 321.973, 582.444 320.587 C 581.072 319.215, 577.512 319.019, 556.179 319.143 C 542.605 319.221, 527.450 319.619, 522.499 320.027 M 279.500 619.597 C 264.638 622.897, 248.281 632.876, 238.879 644.379 C 232.772 651.851, 225.671 666.066, 223.333 675.500 C 220.955 685.091, 220.947 707.024, 223.317 715.879 C 227.480 731.432, 233.403 742.170, 243.500 752.474 C 251.954 761.102, 261.783 767.130, 274.220 771.315 C 283.103 774.304, 284.184 774.436, 299.500 774.403 C 314.212 774.371, 316.184 774.146, 324 771.601 C 350.171 763.081, 367.731 742.767, 373.489 714.353 C 374.397 709.867, 374.964 703.088, 374.796 698.702 L 374.500 690.964 337 690.959 C 316.375 690.956, 298.938 690.964, 298.250 690.977 C 297.318 690.994, 297 694.175, 297 703.480 L 297 715.961 318.750 716.230 C 343.760 716.540, 342.236 715.664, 336.921 726.685 C 329.256 742.581, 310.870 750.654, 291.172 746.773 C 280.759 744.722, 274.848 741.752, 268.398 735.331 C 249.568 716.586, 249.282 676.622, 267.846 658.059 C 287.099 638.806, 323.836 644.630, 333.649 668.493 L 335.500 672.993 354.317 672.996 L 373.135 673 372.512 670.750 C 372.170 669.513, 369.873 664.343, 367.407 659.262 C 358.734 641.386, 341.705 626.911, 322.618 621.190 C 312.018 618.013, 290.254 617.209, 279.500 619.597 M 856.914 619.956 C 848.806 622.413, 844.546 629.048, 845.207 638.190 C 845.580 643.348, 846.081 644.499, 849.453 647.952 C 860.266 659.025, 880.466 653.907, 883.470 639.334 C 885.063 631.601, 879.230 622.268, 871.453 620.109 C 866.968 618.863, 860.734 618.798, 856.914 619.956 M 799.500 622.887 C 790.019 625.367, 781.422 633.336, 778.636 642.227 C 777.727 645.127, 776.650 650.875, 776.242 655 L 775.500 662.500 764.750 662.784 L 754 663.068 754 675.534 L 754 688 765 688 L 776 688 776 731.527 L 776 775.053 790.750 774.777 L 805.500 774.500 805.761 731.277 L 806.021 688.055 820.261 687.777 L 834.500 687.500 834.781 675.278 L 835.061 663.055 820.781 662.778 L 806.500 662.500 806.190 657.628 C 805.940 653.690, 806.311 652.298, 808.125 650.367 C 811.945 646.301, 819.759 645.242, 828.250 647.640 C 829.844 648.091, 830 647.104, 830 636.543 L 830 624.950 827.250 623.809 C 823.965 622.445, 803.758 621.774, 799.500 622.887 M 506.308 660.914 C 494.679 664.241, 482.427 673.571, 475.611 684.290 C 463.598 703.183, 463.448 729.157, 475.238 748.797 C 479.512 755.916, 489.339 764.868, 497.208 768.811 C 523.226 781.849, 554.643 773.864, 570.349 750.222 C 572.806 746.525, 575.818 740.575, 577.045 737 C 579.818 728.916, 580.794 712.763, 579.054 703.754 C 577.243 694.377, 571.820 683.950, 564.916 676.569 C 553.086 663.923, 541.237 658.951, 523.212 659.071 C 516.152 659.118, 510.389 659.746, 506.308 660.914 M 454 661.661 C 441.692 663.576, 431.555 668.416, 423.548 676.203 C 420.269 679.391, 417.455 682, 417.293 682 C 417.132 682, 417 677.725, 417 672.500 L 417 663 403.500 663 L 390 663 390 719.027 L 390 775.053 404.750 774.777 L 419.500 774.500 420 742 C 420.561 705.561, 420.611 705.282, 427.806 698.790 C 432.998 694.105, 439.852 692.069, 451.514 691.748 L 460.500 691.500 460.776 676.250 L 461.052 661 458.776 661.136 C 457.524 661.211, 455.375 661.447, 454 661.661 M 582.029 663.723 C 582.061 664.579, 586.239 679.443, 602.554 736.750 L 613.444 775 628.180 775 L 642.915 775 644.883 768.250 C 647.384 759.667, 654.007 736.637, 659.269 718.225 C 661.513 710.373, 663.660 704.298, 664.040 704.725 C 664.419 705.151, 666.628 712.025, 668.949 720 C 674.457 738.933, 679.590 756.478, 682.634 766.777 L 685.080 775.053 699.769 774.777 L 714.457 774.500 721.566 749.500 C 725.477 735.750, 732.574 710.957, 737.338 694.405 C 742.102 677.853, 746 664.016, 746 663.655 C 746 663.295, 739.536 663, 731.637 663 L 717.273 663 713.117 678.750 C 702.320 719.661, 699.183 731.150, 698.672 731.662 C 698.367 731.966, 697.384 729.579, 696.488 726.357 C 693.048 714.003, 689.952 702.930, 685.625 687.500 C 683.156 678.700, 680.639 669.587, 680.030 667.250 L 678.923 663 664.211 663 L 649.500 663.001 644.840 679.250 C 632.319 722.915, 629.552 731.948, 628.908 731.253 C 628.338 730.636, 623.214 711.949, 611.565 668 L 610.372 663.500 596.186 663.223 C 588.384 663.070, 582.013 663.295, 582.029 663.723 M 850 719 L 850 775 864.500 775 L 879 775 879 719 L 879 663 864.500 663 L 850 663 850 719 M 511.936 687.750 C 502.163 692.707, 496.680 703.331, 496.766 717.144 C 496.880 735.283, 506.498 747.547, 521.591 748.799 C 532.484 749.702, 541.806 743.905, 546.889 733.067 C 549.227 728.082, 549.493 726.350, 549.433 716.500 C 549.360 704.611, 548.564 701.799, 543.175 694.385 C 536.488 685.187, 522.745 682.268, 511.936 687.750" stroke="none" fill="#fbfbfb" fill-rule="evenodd"/></svg>