<svg id="Layer_1" data-name="Layer 1" xmlns="http://www.w3.org/2000/svg" viewBox="0 0 1211.9 310"><defs><style>.cls-1{fill:#e34447;}.cls-2{fill:#e14747;}</style></defs><path class="cls-1" d="M4.05,144.41A143.53,143.53,0,1,1,147.46,288.05h-.61A143.58,143.58,0,0,1,4.05,144.41m89.78,27.66v17.17A28.75,28.75,0,0,0,95.68,199a30.36,30.36,0,0,0,14.59,16.44,63.53,63.53,0,0,0,25.19,7,109.1,109.1,0,0,0,21.38,0,79.73,79.73,0,0,0,24.4-5.61,48.88,48.88,0,0,0,23-19.25,49.51,49.51,0,0,0,7-21.66,52.61,52.61,0,0,0-1-16.83A35.75,35.75,0,0,0,193,136.56a82.77,82.77,0,0,0-24.13-9.2c-7.35-1.8-14.7-3.37-22.05-5.28a30.84,30.84,0,0,1-10.44-4.43,8.26,8.26,0,0,1-3.7-5.61,11.22,11.22,0,0,1,5.61-12.63,27.39,27.39,0,0,1,10-3.19,84.07,84.07,0,0,1,26.49.39,56.94,56.94,0,0,1,30.3,12.9,6.42,6.42,0,0,0,1.57.79V92.68a23.93,23.93,0,0,0-2.25-9.48,32.2,32.2,0,0,0-14-14.82,67.41,67.41,0,0,0-28.05-7.63,97.71,97.71,0,0,0-19.42.34,67.87,67.87,0,0,0-32.09,11.84,48.11,48.11,0,0,0-21.72,43.15,34.89,34.89,0,0,0,6.68,20.2,38.13,38.13,0,0,0,13.52,10.88,98.64,98.64,0,0,0,25.37,8.25,197.82,197.82,0,0,1,21.2,5.16,28.15,28.15,0,0,1,7.92,3.87,9.13,9.13,0,0,1,3.81,5.61,12.61,12.61,0,0,1-8.25,15.43,40.76,40.76,0,0,1-11.11,2.59A89.1,89.1,0,0,1,122.83,186a59.09,59.09,0,0,1-27.21-12.85,13.18,13.18,0,0,0-1.91-1.07Z" transform="translate(-4.05 -1)"/><path class="cls-1" d="M522.39,145.48a106,106,0,0,1,5.1-35.13,69.18,69.18,0,0,1,51.9-47.41,95.66,95.66,0,0,1,17.34-2.35,73.53,73.53,0,0,1,30.58,4.32,71.36,71.36,0,0,1,46,50.49A95.45,95.45,0,0,1,676,147.33a104,104,0,0,1-4.71,25.87A71.2,71.2,0,0,1,654,202a68.7,68.7,0,0,1-30.3,17.28,94.75,94.75,0,0,1-36.13,2.92A70.66,70.66,0,0,1,544,201.53a73.28,73.28,0,0,1-19-35.07,87.15,87.15,0,0,1-2.63-21.15m111.2-3.65A52.15,52.15,0,0,0,633,132a61.91,61.91,0,0,0-3.65-16.84,28.78,28.78,0,0,0-20.59-18.9,44.7,44.7,0,0,0-14-1.13,27.63,27.63,0,0,0-10.55,2.75A30.31,30.31,0,0,0,570,113.5a56.4,56.4,0,0,0-4.6,19.86,97.93,97.93,0,0,0,.72,20.25,55.37,55.37,0,0,0,4.77,16.33,29.4,29.4,0,0,0,18.41,16.16,40,40,0,0,0,14.31,1.52A27.13,27.13,0,0,0,617,183.18a33.1,33.1,0,0,0,13.07-17.56,71.41,71.41,0,0,0,3.53-23.79Z" transform="translate(-4.05 -1)"/><path class="cls-1" d="M1216,64.23V75.45a42.92,42.92,0,0,1-.84,7.07,20.1,20.1,0,0,1-16.39,15.77,37.35,37.35,0,0,1-8.3.9H1143c-1.07,8.64-1.4,17.17-1.68,25.92h59.92V140.6a16.05,16.05,0,0,1-11.78,16.16,36.8,36.8,0,0,1-11.22,1.62h-36.7V165a36.53,36.53,0,0,0,1.52,10.44,13.75,13.75,0,0,0,8.24,8.59,26.61,26.61,0,0,0,9.43,2q13.3.33,26.6,0a110.73,110.73,0,0,0,20.53-2.31c2.3-.39,4.55-1,6.79-1.45h1.29v19.07a17.44,17.44,0,0,1-10.15,15.43,39.59,39.59,0,0,1-14.54,3.87c-4.2.34-8.47.51-12.73.57H1154.9a66.8,66.8,0,0,1-28.05-7.13,48.2,48.2,0,0,1-24.13-29.74,79.24,79.24,0,0,1-3.87-24.35V120.23a197.65,197.65,0,0,1,2.86-32.49,40.77,40.77,0,0,1,2.81-9A22.84,22.84,0,0,1,1122.19,65a43.63,43.63,0,0,1,9-.9h84.61Z" transform="translate(-4.05 -1)"/><path class="cls-1" d="M387.33,172a12.25,12.25,0,0,1,1.8.84,58.8,58.8,0,0,0,27.21,12.85,91.83,91.83,0,0,0,26,2.07,42.41,42.41,0,0,0,11.22-2.07,12.8,12.8,0,0,0,8.14-16,9.36,9.36,0,0,0-4-5.61,32.94,32.94,0,0,0-11.95-4.77c-7-1.69-14-3.14-21-4.77a84.73,84.73,0,0,1-23.62-8.64,33.06,33.06,0,0,1-16.83-20.43A46.22,46.22,0,0,1,383,107.94,48.83,48.83,0,0,1,403.1,74.28,64.09,64.09,0,0,1,432.5,62a91,91,0,0,1,40.23,2,41.49,41.49,0,0,1,20.7,11.84,27,27,0,0,1,7.24,18.46V110.8a11,11,0,0,1-1.68-1,55.14,55.14,0,0,0-27.16-12.45,86.13,86.13,0,0,0-19.75-1.74,64.07,64.07,0,0,0-13.86,1.68,19.85,19.85,0,0,0-7.8,3.59,11.24,11.24,0,0,0-3.48,13.24,8.76,8.76,0,0,0,3,3.54,33,33,0,0,0,6.73,3.42,154.32,154.32,0,0,0,21.88,5.61,101,101,0,0,1,23,7.35,43.66,43.66,0,0,1,15.77,11.84,35,35,0,0,1,7.46,18.57,55.2,55.2,0,0,1-2.25,22.84,46.1,46.1,0,0,1-23,27.16,70,70,0,0,1-23.06,7.29,109.38,109.38,0,0,1-28.06.73,61.73,61.73,0,0,1-24.57-6.79A29.75,29.75,0,0,1,388,196.15a40,40,0,0,1-1.06-7.69V172.13" transform="translate(-4.05 -1)"/><path class="cls-1" d="M741.55,165.62v53.47c-.68,0-13.3.34-19,0a22.94,22.94,0,0,1-23.23-19.8,43.66,43.66,0,0,1-.56-7.13V68.38l2.58-.67a284.14,284.14,0,0,1,30-5.16c4.38-.45,8.75-.67,13.13-.79H763a70.33,70.33,0,0,1,27.32,5.33,44.43,44.43,0,0,1,27.1,30.08,54.78,54.78,0,0,1-9.7,50,52.69,52.69,0,0,1-28.06,18.13,72.55,72.55,0,0,1-23.79,2.35,68.91,68.91,0,0,1-14.36-2.07m0-34.46.45.34a50.9,50.9,0,0,0,21.37,1.29,13.76,13.76,0,0,0,12.46-10.66,29.47,29.47,0,0,0-1-17.62,12.1,12.1,0,0,0-8-7.68,20.26,20.26,0,0,0-5.61-1.07H748.11a20.7,20.7,0,0,0-6.67,1.07Z" transform="translate(-4.05 -1)"/><path class="cls-1" d="M959.19,64.63V75a33.87,33.87,0,0,1,0,5.33,21.86,21.86,0,0,1-8.92,14.81,23.63,23.63,0,0,1-14.87,4.94H913.63V218.93c-.33,0-.45.33-.56.33-7.68,0-15.43,0-23.11-.33a20,20,0,0,1-8.81-2.64,18.4,18.4,0,0,1-9.88-14.14,38.17,38.17,0,0,1-.45-6.23V99.86h-44.1a18.43,18.43,0,0,1,0-2.35,73.59,73.59,0,0,0,0-10.5,20.86,20.86,0,0,1,14.14-21,27.47,27.47,0,0,1,9.71-1.74h109" transform="translate(-4.05 -1)"/><path class="cls-1" d="M977,64.18h19.35a37.24,37.24,0,0,1,7.07.78,19.35,19.35,0,0,1,15.32,15.26,39.72,39.72,0,0,1,1,9.65v68.74a53.1,53.1,0,0,0,1.52,14.59,14.64,14.64,0,0,0,10.77,11.22,28.19,28.19,0,0,0,5.61,1.06,171.17,171.17,0,0,0,28.9-.67,93.19,93.19,0,0,0,14.81-2.8l3.37-1c0,.34.39.51.39.62,0,6,0,12-.34,17.9a20.6,20.6,0,0,1-13.91,18.63,35.53,35.53,0,0,1-12.4,2.8c-7.52,0-15.1,0-22.45.39a101,101,0,0,1-15.93-.84A52.17,52.17,0,0,1,995.61,211a41.59,41.59,0,0,1-14.42-20.25,69.62,69.62,0,0,1-3.82-19.47c0-4.38-.39-8.75-.39-13.13v-94" transform="translate(-4.05 -1)"/><path class="cls-2" d="M313.94,287.71a23.23,23.23,0,1,1-23.28-23.17,23.23,23.23,0,0,1,23.28,23.17" transform="translate(-4.05 -1)"/></svg>