<svg id="Layer_1" data-name="Layer 1" xmlns="http://www.w3.org/2000/svg" viewBox="0 0 817.51 881.77"><defs><style>.cls-1{fill:#e14444;}</style></defs><path class="cls-1" d="M268.35,904.8a103.8,103.8,0,0,1,5-34.46,67.85,67.85,0,0,1,50.91-46.51,92.93,92.93,0,0,1,17-2.31,72.25,72.25,0,0,1,30,4.23,70,70,0,0,1,45.08,49.54,93.71,93.71,0,0,1,2.7,31.33A102.31,102.31,0,0,1,414.44,932a69.88,69.88,0,0,1-17,28.24,67.44,67.44,0,0,1-29.73,16.95A92.82,92.82,0,0,1,332.25,980a69.24,69.24,0,0,1-42.66-20.25,71.91,71.91,0,0,1-18.66-34.4,86,86,0,0,1-2.58-20.76m109.1-3.57a50.36,50.36,0,0,0-.61-9.53A60.33,60.33,0,0,0,373.26,875a28.22,28.22,0,0,0-20.2-18.55,44.17,44.17,0,0,0-13.7-1.1,27,27,0,0,0-10.35,2.7,29.69,29.69,0,0,0-14,15.35,55.74,55.74,0,0,0-4.52,19.49,95.69,95.69,0,0,0,.72,19.87,54.06,54.06,0,0,0,4.68,16,28.81,28.81,0,0,0,18,15.85,39.19,39.19,0,0,0,14,1.49,26.52,26.52,0,0,0,13.15-4.35A32.51,32.51,0,0,0,374,924.56a70.31,70.31,0,0,0,3.47-23.34Z" transform="translate(-131.25 -99.12)"/><path class="cls-1" d="M948.75,825.09v11a41.6,41.6,0,0,1-.82,6.94,19.71,19.71,0,0,1-16.07,15.47,37.26,37.26,0,0,1-8.15.88H877.14c-1,8.47-1.37,16.84-1.65,25.43h58.79V900a15.74,15.74,0,0,1-11.56,15.85,36.06,36.06,0,0,1-11,1.6h-36V924a35.83,35.83,0,0,0,1.49,10.24,13.47,13.47,0,0,0,8.09,8.42,25.79,25.79,0,0,0,9.25,2q13,.33,26.09,0a108.23,108.23,0,0,0,20.14-2.26c2.26-.39,4.46-.94,6.66-1.43h1.27v18.71a17.13,17.13,0,0,1-10,15.14,39.12,39.12,0,0,1-14.26,3.8c-4.13.33-8.31.49-12.5.55H888.87a65.62,65.62,0,0,1-27.53-7,47.32,47.32,0,0,1-23.67-29.18,77.74,77.74,0,0,1-3.79-23.88V880a193.48,193.48,0,0,1,2.8-31.87,40.3,40.3,0,0,1,2.76-8.86,22.39,22.39,0,0,1,17.33-13.44,43.45,43.45,0,0,1,8.81-.88h83Z" transform="translate(-131.25 -99.12)"/><path class="cls-1" d="M135.85,930.83a11.42,11.42,0,0,1,1.77.83,57.67,57.67,0,0,0,26.69,12.61,90.24,90.24,0,0,0,25.49,2,41.71,41.71,0,0,0,11-2,12.56,12.56,0,0,0,8-15.69,9.24,9.24,0,0,0-3.91-5.51,32.54,32.54,0,0,0-11.72-4.68c-6.83-1.65-13.76-3.08-20.65-4.67a83.33,83.33,0,0,1-23.17-8.48,32.46,32.46,0,0,1-16.51-20A45.5,45.5,0,0,1,131.56,868a48,48,0,0,1,19.76-33,63,63,0,0,1,28.85-12.06,89.49,89.49,0,0,1,39.46,2,40.84,40.84,0,0,1,20.31,11.62,26.52,26.52,0,0,1,7.11,18.11v16.18a11.19,11.19,0,0,1-1.66-1,54.08,54.08,0,0,0-26.64-12.22,85.11,85.11,0,0,0-19.37-1.71,62.93,62.93,0,0,0-13.6,1.66,19.37,19.37,0,0,0-7.65,3.52,11,11,0,0,0-3.41,13,8.6,8.6,0,0,0,2.91,3.47,32.85,32.85,0,0,0,6.61,3.35,151.26,151.26,0,0,0,21.47,5.51,98.73,98.73,0,0,1,22.56,7.21,42.74,42.74,0,0,1,15.47,11.61,34.25,34.25,0,0,1,7.32,18.22,54,54,0,0,1-2.2,22.41,45.21,45.21,0,0,1-22.57,26.64,68.47,68.47,0,0,1-22.62,7.15,107.46,107.46,0,0,1-27.52.72A60.64,60.64,0,0,1,152,973.66a29.15,29.15,0,0,1-15.52-19.16,38.36,38.36,0,0,1-1.05-7.54V931" transform="translate(-131.25 -99.12)"/><path class="cls-1" d="M483.35,924.56V977c-.66,0-13,.33-18.66,0a22.53,22.53,0,0,1-22.79-19.43,43.06,43.06,0,0,1-.55-7V829.17l2.53-.66a276.58,276.58,0,0,1,29.4-5.07c4.29-.44,8.59-.66,12.88-.77h18.27a68.86,68.86,0,0,1,26.81,5.23,43.59,43.59,0,0,1,26.59,29.51,53.72,53.72,0,0,1-9.53,49,51.72,51.72,0,0,1-27.52,17.78,70.93,70.93,0,0,1-23.34,2.31,67.1,67.1,0,0,1-14.09-2m0-33.79.44.33a50,50,0,0,0,21,1.26A13.48,13.48,0,0,0,517,881.85a28.94,28.94,0,0,0-1-17.29,11.86,11.86,0,0,0-7.81-7.54,19.9,19.9,0,0,0-5.51-1H489.79a20.55,20.55,0,0,0-6.55,1Z" transform="translate(-131.25 -99.12)"/><path class="cls-1" d="M696.87,825.48v10.18a32.62,32.62,0,0,1,0,5.23,21.45,21.45,0,0,1-8.75,14.53,23.19,23.19,0,0,1-14.59,4.85H652.17V976.85c-.33,0-.44.33-.55.33-7.54,0-15.13,0-22.68-.33a19.51,19.51,0,0,1-8.64-2.58,18,18,0,0,1-9.68-13.88,37.83,37.83,0,0,1-.45-6.11V860.05H566.91a17.81,17.81,0,0,1,0-2.31,70.82,70.82,0,0,0,0-10.3,20.46,20.46,0,0,1,13.87-20.58,26.94,26.94,0,0,1,9.52-1.71h107" transform="translate(-131.25 -99.12)"/><path class="cls-1" d="M714.37,825h19a35.89,35.89,0,0,1,6.94.77,19,19,0,0,1,15,15,39.23,39.23,0,0,1,1,9.47v67.43A52.22,52.22,0,0,0,757.8,932a14.39,14.39,0,0,0,10.57,11,28.67,28.67,0,0,0,5.51,1,169.92,169.92,0,0,0,28.35-.66,92,92,0,0,0,14.53-2.76l3.3-.93c0,.33.39.49.39.6,0,5.84,0,11.73-.33,17.56a20.21,20.21,0,0,1-13.66,18.28,34.62,34.62,0,0,1-12.16,2.75c-7.38,0-14.81,0-22,.38a98.42,98.42,0,0,1-15.63-.82,51.3,51.3,0,0,1-24.06-9.36,40.89,40.89,0,0,1-14.14-19.87,68.49,68.49,0,0,1-3.75-19.1c0-4.29-.38-8.59-.38-12.88V825" transform="translate(-131.25 -99.12)"/><path class="cls-1" d="M214.68,400.22C214.82,233.79,349.84,99,516.27,99.12S817.5,234.27,817.37,400.7,682.21,701.93,515.79,701.8H514.5c-165.9-.91-299.88-135.69-299.81-301.58M403.17,458.3v36a60.66,60.66,0,0,0,3.89,20.38,63.8,63.8,0,0,0,30.63,34.52,133.42,133.42,0,0,0,52.89,14.61,228.92,228.92,0,0,0,44.88,0,167.34,167.34,0,0,0,51.25-11.78A102.65,102.65,0,0,0,635,511.66a104,104,0,0,0,14.61-45.47,110.18,110.18,0,0,0-2.12-35.34,74.89,74.89,0,0,0-36-47.12,173.83,173.83,0,0,0-50.66-19.32c-15.43-3.77-30.86-7.07-46.29-11.08a64.55,64.55,0,0,1-21.92-9.3,17.35,17.35,0,0,1-7.77-11.78,23.56,23.56,0,0,1,11.78-26.51A57.52,57.52,0,0,1,517.68,299a176.37,176.37,0,0,1,55.6.82A119.29,119.29,0,0,1,636.89,327a14.73,14.73,0,0,0,3.3,1.64v-37a50.2,50.2,0,0,0-4.71-19.9,67.62,67.62,0,0,0-29.33-31.1,141.41,141.41,0,0,0-58.91-16,204.9,204.9,0,0,0-40.76.71,142.37,142.37,0,0,0-67.38,24.86,101,101,0,0,0-45.59,90.59,73.18,73.18,0,0,0,14,42.41A80,80,0,0,0,435.92,406a207.13,207.13,0,0,0,53.25,17.32,415.66,415.66,0,0,1,44.53,10.84,58.93,58.93,0,0,1,16.61,8.12,19.1,19.1,0,0,1,8,11.79A26.51,26.51,0,0,1,541,486.45a86.13,86.13,0,0,1-23.32,5.42,186.44,186.44,0,0,1-53.6-4.36,124,124,0,0,1-57.14-27,28,28,0,0,0-4-2.23Z" transform="translate(-131.25 -99.12)"/><path class="cls-1" d="M865.31,701.09a48.77,48.77,0,1,1-48.88-48.65,48.77,48.77,0,0,1,48.88,48.65" transform="translate(-131.25 -99.12)"/></svg>